/* XPM */
static const char *gadget_icon[] = {
/* columns rows colors chars-per-pixel */
"39 39 220 2 ",
"   c None",
".  c #3C2828",
"X  c #3C2829",
"o  c #3D2929",
"O  c #3E2A29",
"+  c #3E2A2A",
"@  c #3F2B2B",
"#  c #432B2A",
"$  c #402C2C",
"%  c #412D2D",
"&  c #412E2D",
"*  c #412E2E",
"=  c #422E2E",
"-  c #432F2F",
";  c #43302F",
":  c #443030",
">  c #443130",
",  c #443131",
"<  c #453131",
"1  c #463232",
"2  c #473333",
"3  c #473334",
"4  c #483334",
"5  c #483434",
"6  c #493535",
"7  c #4A3535",
"8  c #4A3636",
"9  c #4A3637",
"0  c #4B3637",
"q  c #4B3737",
"w  c #4D3737",
"e  c #4C3838",
"r  c #4C3839",
"t  c #4D3939",
"y  c #4E3939",
"u  c #4E393A",
"i  c #4E3A3A",
"p  c #4F3B3B",
"a  c #513735",
"s  c #5E3A36",
"d  c #503B3B",
"f  c #513B3B",
"g  c #503C3C",
"h  c #503D3C",
"j  c #513D3D",
"k  c #523E3E",
"l  c #533F3F",
"z  c #543E3D",
"x  c #623735",
"c  c #673C37",
"v  c #5E413E",
"b  c #69443E",
"n  c #544040",
"m  c #554141",
"M  c #554242",
"N  c #564242",
"B  c #574343",
"V  c #5C4442",
"C  c #5E4443",
"Z  c #584444",
"A  c #594545",
"S  c #5A4646",
"D  c #5A4647",
"F  c #5B4747",
"G  c #5B4748",
"H  c #5C4848",
"J  c #5D4848",
"K  c #5D4948",
"L  c #5D4949",
"P  c #5D4A4A",
"I  c #5E4A4A",
"U  c #5F4A4A",
"Y  c #5F4B4B",
"T  c #634644",
"R  c #694642",
"E  c #694947",
"W  c #604C4C",
"Q  c #614D4D",
"!  c #624E4E",
"~  c #634F4F",
"^  c #644D4C",
"/  c #6B4C4A",
"(  c #6E4F4E",
")  c #714941",
"_  c #784841",
"`  c #704C49",
"'  c #774F4C",
"]  c #784D48",
"[  c #7E4F48",
"{  c #7E524E",
"}  c #645050",
"|  c #655151",
" . c #665252",
".. c #675353",
"X. c #685353",
"o. c #685454",
"O. c #695555",
"+. c #6A5656",
"@. c #6B5656",
"#. c #6A5756",
"$. c #6B5757",
"%. c #6B5858",
"&. c #6C5858",
"*. c #6D5959",
"=. c #6E5858",
"-. c #6E5A5A",
";. c #765251",
":. c #7C5351",
">. c #84524A",
",. c #8E5448",
"<. c #91574C",
"1. c #9E544A",
"2. c #975A4F",
"3. c #9D5B4D",
"4. c #865450",
"5. c #885551",
"6. c #885654",
"7. c #8D5755",
"8. c #8F5856",
"9. c #805858",
"0. c #875A5B",
"q. c #8D5959",
"w. c #9D5C51",
"e. c #935959",
"r. c #935A58",
"t. c #915B5C",
"y. c #AE564D",
"u. c #A7584C",
"i. c #AF5F58",
"p. c #A66150",
"a. c #AC6255",
"s. c #B16356",
"d. c #B46457",
"f. c #B66657",
"g. c #B86554",
"h. c #B66856",
"j. c #BF6B56",
"k. c #BF6C57",
"l. c #B8615B",
"z. c #BD6659",
"x. c #C16B57",
"c. c #C8675D",
"v. c #C4685B",
"b. c #C56D5A",
"n. c #CD6A5D",
"m. c #CB6D5C",
"M. c #D46559",
"N. c #D56C5F",
"B. c #DC705D",
"V. c #D8775E",
"C. c #DA785F",
"Z. c #E4675F",
"A. c #D55F62",
"S. c #DE7C60",
"D. c #E16A62",
"F. c #FC6266",
"G. c #FA6466",
"H. c #FF6567",
"J. c #FC6667",
"K. c #FF6867",
"L. c #FC6E67",
"P. c #FF6668",
"I. c #FF6768",
"U. c #FF6868",
"Y. c #FF6968",
"T. c #FF6A68",
"R. c #FF6B68",
"E. c #FF6C68",
"W. c #FF6D68",
"Q. c #FF6E68",
"!. c #FF6F68",
"~. c #E37561",
"^. c #EA7261",
"/. c #E97563",
"(. c #ED7064",
"). c #E67861",
"_. c #FA7166",
"`. c #FB7567",
"'. c #FD7567",
"]. c #F47E66",
"[. c #F47F66",
"{. c #F77E67",
"}. c #FE7B67",
"|. c #FA7D66",
" X c #FD7D67",
".X c #FE7E67",
"XX c #FF7068",
"oX c #FF7168",
"OX c #FF7268",
"+X c #FF7368",
"@X c #FF7468",
"#X c #FF7568",
"$X c #FF7768",
"%X c #FF7868",
"&X c #FF7968",
"*X c #FF7A68",
"=X c #FF7B68",
"-X c #FF7C68",
";X c #FF7D68",
":X c #FF7E68",
">X c #FF7F68",
",X c #EF8364",
"<X c #F88767",
"1X c #FA8867",
"2X c #FD8068",
"3X c #FF8069",
"4X c #FF8169",
"5X c #FF8269",
"6X c #FF8369",
"7X c #FE8468",
"8X c #FF8469",
"9X c #FF8569",
"0X c #FE8768",
"qX c #FF8669",
"wX c #FF8769",
"eX c #FF8869",
"rX c #FF8969",
"tX c #FF8A69",
"yX c #FF8B69",
"uX c #FF8C69",
/* pixels */
"                                                                              ",
"                                                                              ",
"                                      + .                                     ",
"                                    + + + @                                   ",
"                        R.E.E.E.  + + + + + $     qXqXtXuXtX                  ",
"                      I.R.E.E.L._.x + + $ $ ,     qXtXuXtXtX                  ",
"                    H.R.R.E.+X+X#XM.+ $ $ , : : x.tXtXtXtX                    ",
"                    R.E.E.XXZ.+X#X*Xc $ : : 2 6 j.tXtXtXqX                    ",
"                    R.      + y.*X*Xu.; ; ; 7 7 ,XtXtXqX                      ",
"                  E.E.    + . # ^..XB.; 2 7 7 R tXtXqXqX                      ",
"                  XXXX  + . + $ 1.:X2Xa 7 7 e p.tXqXqXf.                      ",
"                  E.  + . + @ $ s 5X5X_ 6 6 e C.qXqX].C N                     ",
"                    + . . + $ $ : ).qX3.6 r v qXqXqXa.B Z                     ",
"                  + + + + @ ; : : g.qXk.y y <.qX5X{.T Z Z H                   ",
"                + + + + $ $ : : 3 ,.tXS.y d b.5X5Xd.Z Z H H H                 ",
"                + . + + $ : : 2 6 b tX1Xg z ].5X|.E Z F H H ! !               ",
"              + + @ $ $ ; , , 6 6 y <XtXR { 2X5Xz.Z Z H W W ! ! |             ",
"            + . + $ $ $ , , 6 6 6 y V.qX>.a.2X.X` Z H W W ! ! ~ o.o.          ",
"          + + + @ $ ; , 2 2 6 9 y y h.qXw.~.:Xv.F H H H ! ~ | | o.o.          ",
"          . + $ $ $ ; 2 2 6 r r y g 2.5Xm.:X*X' H H ! ! ! | | X.o.o.*.        ",
"          + @ $ , : 2 6 6 9 r i p g ] 5X.X.Xn.G H H ! ! } | o.o.o.*.          ",
"            @ $ : : : 6 9 9 p p g N B :X*X*X4.H ! W ! } | | o.&.*.            ",
"              : : 2 6 e r p p p n n N /.*XN.H H W ! | | o.o.$.*.              ",
"                2 6 6 r i p h n n N Z n.*X5.H ! ! ! | o.o.o.&.*.              ",
"                  e y y p p n n N Z Z c.'.H ! ! } | X.o.o.*.*.                ",
"                    y y p n n M B Z / `.'.( ! ! | | o.&.*.*.                  ",
"                    g g v n n M Z Z i.#XXX:.| | | o.&.o.*.                    ",
"                      g n n M A H H (.#XXX6.| | o.o.&.*.                      ",
"                        N Z Z F H 5.#XE.E.8.| o.o.o.*.                        ",
"                          Z Z H H l.XXXXR.e.o.o.*.*.                          ",
"                            H H Y D.XXE.R.e.o.o.*.*.                          ",
"                              H ! XXE.E.R.q.*.*.*.                            ",
"                                ;.E.R.I.I.9.*.*.                              ",
"                                7.R.R.I.G.&.*.                                ",
"                                  R.I.I.A.*.                                  ",
"                                  H.H.F.t.                                    ",
"                                      0.*.                                    ",
"                                                                              ",
"                                                                              "
};
